<?xml version="1.0" encoding="UTF-8" standalone="no"?>
<svg
   xmlns:dc="http://purl.org/dc/elements/1.1/"
   xmlns:cc="http://creativecommons.org/ns#"
   xmlns:rdf="http://www.w3.org/1999/02/22-rdf-syntax-ns#"
   xmlns:svg="http://www.w3.org/2000/svg"
   xmlns="http://www.w3.org/2000/svg"
   xmlns:sodipodi="http://sodipodi.sourceforge.net/DTD/sodipodi-0.dtd"
   xmlns:inkscape="http://www.inkscape.org/namespaces/inkscape"
   width="14in"
   height="6in"
   viewBox="0 0 355.60001 152.4"
   version="1.1"
   id="svg839"
   inkscape:version="1.0.2 (e86c870879, 2021-01-15)"
   sodipodi:docname="faceplate_engraving.svg">
  <defs
     id="defs833" />
  <sodipodi:namedview
     id="base"
     pagecolor="#ffffff"
     bordercolor="#666666"
     borderopacity="1.0"
     inkscape:pageopacity="0.0"
     inkscape:pageshadow="2"
     inkscape:zoom="1.33912"
     inkscape:cx="998.36381"
     inkscape:cy="265.94662"
     inkscape:document-units="mm"
     inkscape:current-layer="layer1"
     inkscape:document-rotation="0"
     showgrid="false"
     units="in"
     showguides="true"
     inkscape:guide-bbox="true"
     inkscape:window-width="3840"
     inkscape:window-height="1520"
     inkscape:window-x="0"
     inkscape:window-y="0"
     inkscape:window-maximized="1">
    <sodipodi:guide
       position="6.7401025,157.13884"
       orientation="1,0"
       id="guide1418" />
    <sodipodi:guide
       position="334.83022,133.08542"
       orientation="1,0"
       id="guide1444" />
  </sodipodi:namedview>
  <metadata
     id="metadata836">
    <rdf:RDF>
      <cc:Work
         rdf:about="">
        <dc:format>image/svg+xml</dc:format>
        <dc:type
           rdf:resource="http://purl.org/dc/dcmitype/StillImage" />
        <dc:title></dc:title>
      </cc:Work>
    </rdf:RDF>
  </metadata>
  <g
     inkscape:label="Layer 1"
     inkscape:groupmode="layer"
     id="layer1">
    <path
       id="text1404"
       style="font-style:normal;font-variant:normal;font-weight:normal;font-stretch:normal;font-size:68.1642px;line-height:0.8;font-family:'MADE Tommy Soft';-inkscape-font-specification:'MADE Tommy Soft';letter-spacing:-3.54012px;word-spacing:0px;fill:#000000;fill-opacity:1;stroke:none;stroke-width:1.70411"
       sodipodi:type="inkscape:offset"
       inkscape:radius="2.1275818"
       inkscape:original="M 135.21875 -60.845703 C 130.02656 -60.845703 125.8209 -59.060689 122.60352 -55.488281 C 119.38613 -51.938063 117.77734 -46.667228 117.77734 -39.677734 L 117.77734 -31.623047 C 117.77734 -24.788876 119.39714 -19.652165 122.63672 -16.212891 C 125.87629 -12.773616 130.09296 -11.054687 135.28516 -11.054688 C 140.49954 -11.054688 144.70324 -12.773616 147.89844 -16.212891 C 151.09363 -19.652165 152.69141 -24.788876 152.69141 -31.623047 L 152.69141 -39.677734 C 152.69141 -46.667228 151.08262 -51.938063 147.86523 -55.488281 C 144.64785 -59.060689 140.43313 -60.845703 135.21875 -60.845703 z M -0.5078125 -60.179688 L -0.5078125 -11.720703 L 9.3105469 -11.720703 L 9.3105469 -24.833984 L 8.4121094 -44.902344 L 18.064453 -11.720703 L 24.753906 -11.720703 L 34.40625 -44.902344 L 33.507812 -24.833984 L 33.507812 -11.720703 L 43.326172 -11.720703 L 43.326172 -60.179688 L 30.544922 -60.179688 L 21.425781 -25.166016 L 12.273438 -60.179688 L -0.5078125 -60.179688 z M 60.220703 -60.179688 L 45.078125 -11.720703 L 55.462891 -11.720703 L 58.058594 -21.638672 L 71.404297 -21.638672 L 74 -11.720703 L 84.417969 -11.720703 L 69.175781 -60.179688 L 60.220703 -60.179688 z M 85.4375 -60.179688 L 85.4375 -11.720703 L 95.257812 -11.720703 L 95.257812 -25.632812 L 99.117188 -30.458984 L 107.9707 -11.720703 L 119.55273 -11.720703 L 105.44141 -38.878906 L 119.32031 -60.179688 L 107.37109 -60.179688 L 98.351562 -44.304688 L 95.257812 -39.111328 L 95.257812 -60.179688 L 85.4375 -60.179688 z M 135.21875 -52.658203 C 137.72609 -52.658203 139.63422 -51.659107 140.94336 -49.662109 C 142.2525 -47.665111 142.90625 -44.359425 142.90625 -39.744141 L 142.90625 -31.390625 C 142.88406 -27.085985 142.23031 -23.978555 140.94336 -22.070312 C 139.65641 -20.16207 137.77031 -19.208984 135.28516 -19.208984 C 132.77781 -19.208984 130.85868 -20.173084 129.52734 -22.103516 C 128.2182 -24.056136 127.5625 -27.229651 127.5625 -31.623047 L 127.5625 -40.009766 C 127.58469 -44.514106 128.24039 -47.742692 129.52734 -49.695312 C 130.83649 -51.670122 132.7336 -52.658203 135.21875 -52.658203 z M 64.714844 -47.099609 L 69.275391 -29.792969 L 60.1875 -29.792969 L 64.714844 -47.099609 z "
       d="m 135.21875,-62.972656 c -5.67982,0 -10.59678,2.064924 -14.19531,6.060547 -3.68079,4.064938 -5.37305,9.921514 -5.37305,17.234375 v 8.054687 c 0,7.17035 1.71566,12.917878 5.4375,16.869141 3.62877,3.852467 8.53549,5.8261727 14.19727,5.8261716 5.68195,0 10.58393,-1.9758746 14.17187,-5.8378906 3.67345,-3.954068 5.36133,-9.691642 5.36133,-16.857422 v -8.054687 c 0,-7.312861 -1.69226,-13.169437 -5.37305,-17.234375 -3.59986,-3.997099 -8.52663,-6.060547 -14.22656,-6.060547 z m -135.7265625,0.666015 a 2.1277946,2.1277946 0 0 0 -2.1269531,2.126953 v 48.458985 a 2.1277946,2.1277946 0 0 0 2.1269531,2.126953 H 9.3105469 A 2.1277946,2.1277946 0 0 0 11.4375,-11.720703 v -13.113281 a 2.1277946,2.1277946 0 0 0 -0.002,-0.0957 l -0.103516,-2.318359 4.689453,16.121094 a 2.1277946,2.1277946 0 0 0 2.042969,1.533203 h 6.689453 a 2.1277946,2.1277946 0 0 0 2.042969,-1.533203 l 4.689453,-16.121094 -0.103516,2.318359 a 2.1277946,2.1277946 0 0 0 -0.002,0.0957 v 13.113281 a 2.1277946,2.1277946 0 0 0 2.126953,2.126953 h 9.81836 a 2.1277946,2.1277946 0 0 0 0.876953,-0.1894531 2.1277946,2.1277946 0 0 0 0.875,0.1894531 h 10.384766 a 2.1277946,2.1277946 0 0 0 2.058593,-1.587891 l 2.179688,-8.330078 h 10.060547 l 2.179687,8.330078 A 2.1277946,2.1277946 0 0 0 74,-9.59375 h 10.417969 a 2.1277946,2.1277946 0 0 0 0.505859,-0.0625 2.1277946,2.1277946 0 0 0 0.513672,0.0625 h 9.820312 a 2.1277946,2.1277946 0 0 0 2.126954,-2.126953 v -13.166016 l 1.265625,-1.582031 7.396489,15.65625 a 2.1277946,2.1277946 0 0 0 1.92382,1.21875 h 11.58203 a 2.1277946,2.1277946 0 0 0 1.88868,-3.107422 l -13.53907,-26.05664 13.20118,-20.259766 a 2.1277946,2.1277946 0 0 0 -1.78321,-3.289063 h -11.94922 a 2.1277946,2.1277946 0 0 0 -1.84961,1.076172 l -8.136714,14.31836 v -13.267579 a 2.1277946,2.1277946 0 0 0 -2.126954,-2.126953 H 85.4375 a 2.1277946,2.1277946 0 0 0 -2.126953,2.126953 v 37.847657 L 71.205078,-60.818359 a 2.1277946,2.1277946 0 0 0 -2.029297,-1.488282 h -8.955078 a 2.1277946,2.1277946 0 0 0 -2.03125,1.492188 l -12.736328,40.757812 v -40.123047 a 2.1277946,2.1277946 0 0 0 -2.126953,-2.126953 h -12.78125 a 2.1277946,2.1277946 0 0 0 -2.058594,1.589844 l -7.064453,27.123047 -7.089844,-27.123047 a 2.1277946,2.1277946 0 0 0 -2.058593,-1.589844 z M 135.21875,-50.53125 c 1.94216,0 2.97748,0.558797 3.94531,2.035156 0.89699,1.368284 1.61524,4.337582 1.61524,8.751953 v 8.341797 c -0.0211,4.094515 -0.72459,6.845123 -1.59961,8.142578 -0.93177,1.38159 -1.95335,1.923828 -3.89453,1.923828 -1.95468,0 -3.02031,-0.558169 -3.99414,-1.96289 -0.89631,-1.342462 -1.60157,-4.149166 -1.60157,-8.324219 V -40 v -0.0098 c 0.0224,-4.293677 0.73819,-7.181648 1.61328,-8.511718 0.9662,-1.45623 1.996,-2.009766 3.91602,-2.009766 z m -70.496094,11.808594 1.792969,6.802734 h -3.572266 z"
       transform="matrix(0,0.97545312,-0.97545312,0,-2.6791168,2.052364)" />
    <text
       xml:space="preserve"
       style="font-style:normal;font-variant:normal;font-weight:normal;font-stretch:normal;font-size:10.5833px;line-height:1.25;font-family:'Roboto Condensed';-inkscape-font-specification:'Roboto Condensed, ';fill:#000000;fill-opacity:1;stroke:none;stroke-width:0.264583"
       x="18.493444"
       y="82.709679"
       id="text1412"><tspan
         sodipodi:role="line"
         id="tspan1410"
         x="18.493444"
         y="82.709679"
         style="font-style:normal;font-variant:normal;font-weight:normal;font-stretch:normal;font-family:'Roboto Condensed';-inkscape-font-specification:'Roboto Condensed, ';stroke-width:0.264583" /></text>
  </g>
</svg>
