<?xml version="1.0" encoding="UTF-8" standalone="no"?>
<svg
   xmlns:svg="http://www.w3.org/2000/svg"
   xmlns="http://www.w3.org/2000/svg"
   width="800.0"
   height="240.0"

>
    <g transform="scale(0.9669902866921241, -0.9669902866921241)   translate(375.1697572755508,-113.75502061792938)" stroke-width="1.0341365510720852"  fill="none">
       <!-- hidden lines -->
       <g  stroke="rgb(160,160,160)" fill="none" stroke-dasharray="1.0341365510720852,1.0341365510720852" >
			<path d="M-168.34244706113378,-92.46301463260433 L167.2935844626221,-68.57943604837753 " />
			<path d="M167.29358446262205,-68.57943604837753 L168.34244706113378,-69.18871101226087 " />
			<path d="M167.29358446262205,-68.57943604837753 L167.29358446262205,93.07228959648766 " />
			<path d="M-57.62786185939992,-38.51734267023674 L-57.62786185939992,-39.20125381719579 " />
			<path d="M-57.62786185939992,-51.490603510905814 L-39.69455308844559,-50.21448429521316 " />
			<path d="M-39.69455308844558,-50.8983954421722 L-39.69455308844558,-50.21448429521315 " />
			<path d="M-56.57899926088819,-70.01913381633669 L-57.62786185939993,-70.0937699994124 " />
			<path d="M-57.62786185939992,-70.0937699994124 L-57.62786185939992,-57.12050915874333 " />
			<path d="M-74.51230803184252,-58.321992191360295 L-75.56117063035424,-58.396628374436 " />
			<path d="M-75.56117063035425,-39.79346188592941 L-75.56117063035425,-58.396628374436006 " />
			<path d="M-75.56117063035425,-39.7934618859294 L-57.62786185939993,-38.517342670236744 " />
			<path d="M39.69455308844557,-63.16838855314454 L38.645690489933855,-63.24302473622025 " />
			<path d="M38.64569048993386,-44.63985824771366 L38.64569048993386,-63.243024736220256 " />
			<path d="M38.64569048993387,-44.63985824771366 L56.578999260888196,-43.363739032021 " />
			<path d="M56.57899926088819,-43.363739032021 L56.57899926088819,-36.02038383918945 " />
			<path d="M39.69455308844557,-37.22186687180639 L38.645690489933855,-37.2965030548821 " />
			<path d="M38.64569048993386,-18.693336566375518 L38.64569048993386,-37.29650305488211 " />
			<path d="M38.64569048993387,-18.693336566375514 L56.578999260888196,-17.417217350682858 " />
			<path d="M56.57899926088819,-17.417217350682858 L56.57899926088819,-4.297089406157156 " />
			<path d="M56.57899926088819,-4.297089406157158 L74.51230803184254,-3.020970190464501 " />
			<path d="M74.51230803184252,-3.020970190464496 L74.51230803184252,-3.7048813374235436 " />
			<path d="M74.51230803184252,-16.1410981349902 L92.44561680279685,-14.864978919297544 " />
			<path d="M92.44561680279685,-15.548890066256583 L92.44561680279685,-14.864978919297542 " />
			<path d="M-136.4400346159624,13.201575403011894 L-136.4400346159624,12.517664256052853 " />
			<path d="M-153.32448078840497,-6.603074118111651 L-154.3733433869167,-6.677710301187359 " />
			<path d="M-154.3733433869167,-6.677710301187361 L-154.3733433869167,11.925456187319234 " />
			<path d="M-154.3733433869167,11.925456187319233 L-136.44003461596236,13.20157540301189 " />
			<path d="M-112.98515446026686,30.781207926601084 L-112.98515446026686,30.097296779642036 " />
			<path d="M-129.86960063270945,10.976558405477542 L-130.91846323122118,10.901922222401833 " />
			<path d="M-130.91846323122118,10.901922222401833 L-130.91846323122118,29.505088710908428 " />
			<path d="M-130.91846323122118,29.50508871090842 L-112.98515446026684,30.78120792660108 " />
			<path d="M-61.261716531409085,26.090379481507746 L-61.261716531409085,25.406468334548684 " />
			<path d="M-78.14616270385169,6.285729960384189 L-79.1950253023634,6.211093777308482 " />
			<path d="M-79.19502530236342,6.211093777308481 L-79.19502530236342,24.81426026581507 " />
			<path d="M-79.19502530236342,24.814260265815072 L-61.261716531409085,26.09037948150773 " />
			<path d="M-85.94361255038045,35.83862625780193 L-85.94361255038045,35.154715110842865 " />
			<path d="M-102.82805872282304,16.033976736678373 L-103.87692132133478,15.959340553602665 " />
			<path d="M-103.87692132133478,15.959340553602662 L-103.87692132133478,34.56250704210926 " />
			<path d="M-103.87692132133478,34.56250704210926 L-85.94361255038044,35.83862625780191 " />
			<path d="M8.4422230862213,27.868332796837024 L8.4422230862213,27.18442164987797 " />
			<path d="M-8.442223086221304,8.063683275713469 L-9.491085684733036,7.98904709263776 " />
			<path d="M-9.49108568473303,7.989047092637758 L-9.49108568473303,26.592213581144353 " />
			<path d="M-9.491085684733036,26.592213581144353 L8.442223086221304,27.86833279683701 " />
			<path d="M78.14616270385167,36.010527279286975 L78.14616270385167,35.32661613232793 " />
			<path d="M61.26171653140909,16.205877758163425 L60.21285393289736,16.131241575087717 " />
			<path d="M60.21285393289735,16.131241575087717 L60.21285393289735,34.7344080635943 " />
			<path d="M60.21285393289734,34.73440806359431 L78.14616270385167,36.01052727928696 " />
			<path d="M153.32448078840497,33.82097536183535 L153.32448078840497,33.13706421487632 " />
			<path d="M136.4400346159624,14.016325840711815 L135.39117201745063,13.941689657636104 " />
			<path d="M135.39117201745066,13.9416896576361 L135.39117201745066,32.54485614614269 " />
			<path d="M135.39117201745063,32.54485614614269 L153.324480788405,33.82097536183535 " />
			<path d="M129.86960063270948,48.06254867384955 L129.86960063270948,47.378637526890486 " />
			<path d="M112.98515446026687,28.257899152726 L111.93629186175514,28.183262969650293 " />
			<path d="M111.93629186175514,28.183262969650297 L111.93629186175514,46.78642945815689 " />
			<path d="M111.93629186175515,46.78642945815689 L129.86960063270948,48.06254867384955 " />
			<path d="M78.14616270385167,57.55103584492619 L78.14616270385167,56.86712469796714 " />
			<path d="M61.26171653140909,37.74638632380264 L60.21285393289736,37.671750140726935 " />
			<path d="M60.21285393289735,37.67175014072694 L60.21285393289735,56.27491662923354 " />
			<path d="M60.21285393289734,56.27491662923353 L78.14616270385167,57.55103584492619 " />
			<path d="M102.82805872282304,49.27146010719832 L102.82805872282304,48.58754896023926 " />
			<path d="M85.94361255038046,29.466810586074764 L84.89474995186873,29.392174402999057 " />
			<path d="M84.89474995186872,29.39217440299906 L84.89474995186872,47.995340891505656 " />
			<path d="M84.8947499518687,47.99534089150565 L102.82805872282306,49.27146010719831 " />
			<path d="M153.32448078840497,55.361483927474566 L153.32448078840497,54.67757278051553 " />
			<path d="M136.4400346159624,35.55683440635103 L135.39117201745063,35.48219822327532 " />
			<path d="M135.39117201745066,35.48219822327532 L135.39117201745066,54.085364711781914 " />
			<path d="M135.39117201745063,54.085364711781914 L153.324480788405,55.36148392747457 " />
			<path d="M102.82805872282304,70.81196867283754 L102.82805872282304,70.12805752587848 " />
			<path d="M85.94361255038046,51.007319151713986 L84.89474995186873,50.932682968638275 " />
			<path d="M84.89474995186872,50.93268296863828 L84.89474995186872,69.53584945714486 " />
			<path d="M84.8947499518687,69.53584945714486 L102.82805872282306,70.81196867283752 " />
			<path d="M129.86960063270948,69.60305723948876 L129.86960063270948,68.91914609252972 " />
			<path d="M112.98515446026687,49.79840771836521 L111.93629186175514,49.72377153528951 " />
			<path d="M111.93629186175514,49.72377153528951 L111.93629186175514,68.3269380237961 " />
			<path d="M111.93629186175515,68.3269380237961 L129.86960063270948,69.60305723948876 " />
			<path d="M-57.62786185939993,-38.51734267023676 L-56.578999260888196,-39.126617634120095 " />
			<path d="M-75.56117063035424,-39.79346188592942 L-74.51230803184251,-40.402736849812754 " />
			<path d="M-39.69455308844559,-50.214484295213175 L-38.645690489933855,-50.82375925909651 " />
			<path d="M-75.56117063035424,-58.39662837443601 L-74.51230803184251,-59.00590333831935 " />
			<path d="M-57.62786185939993,-70.09376999941242 L-56.578999260888196,-70.70304496329575 " />
			<path d="M92.44561680279685,-14.864978919297556 L93.49447940130858,-15.474253883180893 " />
			<path d="M74.51230803184252,-3.02097019046451 L75.56117063035425,-3.630245154347847 " />
			<path d="M38.645690489933855,-63.243024736220256 L39.69455308844559,-63.85229970010359 " />
			<path d="M56.57899926088819,-4.29708940615717 L57.62786185939992,-4.906364370040507 " />
			<path d="M38.645690489933855,-44.63985824771367 L39.69455308844559,-45.249133211597005 " />
			<path d="M56.57899926088819,-17.41721735068287 L57.62786185939992,-18.026492314566205 " />
			<path d="M38.645690489933855,-18.693336566375528 L39.69455308844559,-19.302611530258865 " />
			<path d="M56.57899926088819,-43.363739032021016 L57.62786185939992,-43.97301399590435 " />
			<path d="M38.645690489933855,-37.296503054882116 L39.69455308844559,-37.90577801876545 " />
			<path d="M-136.4400346159624,13.201575403011887 L-135.39117201745066,12.59230043912855 " />
			<path d="M-154.3733433869167,11.925456187319227 L-153.32448078840497,11.31618122343589 " />
			<path d="M-154.3733433869167,-6.677710301187368 L-153.32448078840497,-7.2869852650707045 " />
			<path d="M-112.98515446026687,30.78120792660107 L-111.93629186175514,30.171932962717733 " />
			<path d="M-130.91846323122118,29.50508871090841 L-129.86960063270945,28.895813747025073 " />
			<path d="M-130.91846323122118,10.901922222401822 L-129.86960063270945,10.292647258518485 " />
			<path d="M-61.26171653140909,26.090379481507725 L-60.21285393289736,25.481104517624388 " />
			<path d="M-79.19502530236343,24.814260265815065 L-78.1461627038517,24.20498530193173 " />
			<path d="M-79.19502530236343,6.211093777308463 L-78.1461627038517,5.601818813425126 " />
			<path d="M-85.94361255038046,35.838626257801906 L-84.89474995186873,35.22935129391857 " />
			<path d="M-103.87692132133478,34.562507042109246 L-102.82805872282304,33.95323207822591 " />
			<path d="M-103.87692132133478,15.959340553602658 L-102.82805872282304,15.350065589719321 " />
			<path d="M8.442223086221304,27.868332796836995 L9.491085684733036,27.25905783295366 " />
			<path d="M-9.491085684733036,26.592213581144335 L-8.442223086221304,25.982938617261 " />
			<path d="M-9.491085684733036,7.9890470926377475 L-8.442223086221304,7.379772128754411 " />
			<path d="M78.14616270385169,36.01052727928695 L79.19502530236342,35.40125231540361 " />
			<path d="M60.21285393289735,34.7344080635943 L61.261716531409085,34.125133099710965 " />
			<path d="M60.21285393289735,16.1312415750877 L61.261716531409085,15.521966611204363 " />
			<path d="M153.32448078840497,33.82097536183534 L154.3733433869167,33.211700397952 " />
			<path d="M135.39117201745066,32.54485614614268 L136.4400346159624,31.93558118225934 " />
			<path d="M135.39117201745066,13.94168965763609 L136.4400346159624,13.332414693752753 " />
			<path d="M129.86960063270945,48.062548673849534 L130.91846323122118,47.4532737099662 " />
			<path d="M111.93629186175512,46.786429458156874 L112.98515446026686,46.17715449427354 " />
			<path d="M111.93629186175512,28.183262969650286 L112.98515446026686,27.57398800576695 " />
			<path d="M78.14616270385169,57.55103584492616 L79.19502530236342,56.941760881042825 " />
			<path d="M60.21285393289735,56.2749166292335 L61.261716531409085,55.665641665350165 " />
			<path d="M60.21285393289735,37.671750140726914 L61.261716531409085,37.06247517684358 " />
			<path d="M102.82805872282304,49.271460107198294 L103.87692132133478,48.66218514331496 " />
			<path d="M84.89474995186872,47.995340891505634 L85.94361255038045,47.3860659276223 " />
			<path d="M84.89474995186872,29.392174402999046 L85.94361255038045,28.78289943911571 " />
			<path d="M153.32448078840497,55.36148392747455 L154.3733433869167,54.752208963591215 " />
			<path d="M135.39117201745066,54.08536471178189 L136.4400346159624,53.476089747898556 " />
			<path d="M135.39117201745066,35.482198223275304 L136.4400346159624,34.87292325939197 " />
			<path d="M102.82805872282304,70.81196867283751 L103.87692132133478,70.20269370895417 " />
			<path d="M84.89474995186872,69.53584945714485 L85.94361255038045,68.92657449326151 " />
			<path d="M84.89474995186872,50.93268296863826 L85.94361255038045,50.323408004754924 " />
			<path d="M129.86960063270945,69.60305723948875 L130.91846323122118,68.99378227560541 " />
			<path d="M111.93629186175512,68.32693802379609 L112.98515446026686,67.71766305991275 " />
			<path d="M111.93629186175512,49.7237715352895 L112.98515446026686,49.114496571406164 " />
			<path d="M74.51230803184252,-29.114358975659272 L74.51230803184252,-21.624136678971094 " />
			<path d="M74.51230803184252,-29.114358975659286 L75.56117063035425,-29.723633939542623 " />
			<path d="M56.57899926088819,-30.39047819135193 L74.51230803184254,-29.114358975659272 " />

       </g>

       <!-- solid lines -->
       <g  stroke="rgb(0,0,0)" fill="none">
			<path d="M-168.34244706113378,-92.46301463260433 L-167.29358446262205,-93.07228959648766 " />
			<path d="M-167.29358446262205,-93.07228959648766 L-167.29358446262205,68.57943604837753 " />
			<path d="M-168.34244706113378,69.18871101226087 L-167.29358446262205,68.57943604837753 " />
			<path d="M-168.34244706113378,-92.46301463260433 L-168.34244706113378,69.18871101226087 " />
			<path d="M-167.29358446262205,-93.07228959648766 L168.34244706113384,-69.18871101226087 " />
			<path d="M168.34244706113378,-69.18871101226087 L168.34244706113378,92.46301463260433 " />
			<path d="M-167.29358446262205,68.57943604837753 L168.34244706113384,92.46301463260433 " />
			<path d="M-56.57899926088819,-39.12661763412007 L-56.57899926088819,-52.09987847478915 " />
			<path d="M-56.57899926088819,-52.09987847478915 L-38.645690489933855,-50.8237592590965 " />
			<path d="M-38.64569048993386,-50.82375925909649 L-38.64569048993386,-69.4269257476031 " />
			<path d="M-38.645690489933855,-69.42692574760308 L-56.578999260888196,-70.70304496329574 " />
			<path d="M-56.57899926088819,-70.70304496329574 L-56.57899926088819,-57.72978412262667 " />
			<path d="M-56.57899926088818,-57.72978412262668 L-74.51230803184251,-59.005903338319335 " />
			<path d="M-74.51230803184252,-59.00590333831933 L-74.51230803184252,-40.40273684981273 " />
			<path d="M-74.51230803184252,-40.40273684981274 L-56.578999260888196,-39.12661763412008 " />
			<path d="M93.49447940130858,-34.07742037168747 L75.56117063035427,-35.353539587380126 " />
			<path d="M75.56117063035425,-35.353539587380126 L75.56117063035425,-48.3268004280492 " />
			<path d="M75.56117063035425,-48.326800428049204 L57.62786185939993,-49.60291964374186 " />
			<path d="M57.62786185939992,-49.60291964374187 L57.62786185939992,-62.57618048441094 " />
			<path d="M57.62786185939993,-62.576180484410926 L39.69455308844559,-63.852299700103586 " />
			<path d="M39.69455308844558,-63.85229970010357 L39.69455308844558,-45.24913321159698 " />
			<path d="M39.6945530884456,-45.249133211597 L57.62786185939993,-43.97301399590434 " />
			<path d="M57.62786185939992,-43.97301399590434 L57.62786185939992,-36.629658803072786 " />
			<path d="M57.62786185939993,-36.62965880307278 L39.69455308844559,-37.90577801876544 " />
			<path d="M39.69455308844558,-37.90577801876543 L39.69455308844558,-19.302611530258837 " />
			<path d="M39.6945530884456,-19.302611530258844 L57.62786185939993,-18.026492314566188 " />
			<path d="M57.62786185939992,-18.026492314566195 L57.62786185939992,-4.906364370040492 " />
			<path d="M57.62786185939992,-4.9063643700404915 L75.56117063035427,-3.6302451543478345 " />
			<path d="M75.56117063035425,-3.6302451543478327 L75.56117063035425,-16.75037309887353 " />
			<path d="M75.56117063035425,-16.75037309887353 L93.49447940130858,-15.474253883180873 " />
			<path d="M93.49447940130858,-15.47425388318087 L93.49447940130858,-34.07742037168747 " />
			<path d="M-135.39117201745066,12.592300439128557 L-135.39117201745066,-6.010866049378038 " />
			<path d="M-135.39117201745063,-6.010866049378033 L-153.32448078840497,-7.28698526507069 " />
			<path d="M-153.32448078840497,-7.286985265070697 L-153.32448078840497,11.316181223435898 " />
			<path d="M-153.32448078840497,11.3161812234359 L-135.39117201745063,12.592300439128557 " />
			<path d="M-111.93629186175512,30.171932962717747 L-111.93629186175512,11.568766474211152 " />
			<path d="M-111.93629186175512,11.568766474211158 L-129.86960063270945,10.2926472585185 " />
			<path d="M-129.86960063270945,10.292647258518503 L-129.86960063270945,28.895813747025098 " />
			<path d="M-129.86960063270945,28.89581374702509 L-111.93629186175511,30.17193296271775 " />
			<path d="M-60.21285393289735,25.48110451762441 L-60.21285393289735,6.877938029117807 " />
			<path d="M-60.212853932897346,6.877938029117807 L-78.14616270385167,5.60181881342515 " />
			<path d="M-78.14616270385169,5.601818813425151 L-78.14616270385169,24.20498530193174 " />
			<path d="M-78.14616270385169,24.204985301931742 L-60.21285393289735,25.4811045176244 " />
			<path d="M-84.89474995186872,35.22935129391859 L-84.89474995186872,16.62618480541198 " />
			<path d="M-84.8947499518687,16.626184805411988 L-102.82805872282304,15.350065589719332 " />
			<path d="M-102.82805872282304,15.350065589719332 L-102.82805872282304,33.95323207822592 " />
			<path d="M-102.82805872282304,33.95323207822592 L-84.8947499518687,35.229351293918576 " />
			<path d="M9.49108568473303,27.259057832953687 L9.49108568473303,8.655891344447085 " />
			<path d="M9.491085684733036,8.655891344447085 L-8.442223086221304,7.3797721287544285 " />
			<path d="M-8.4422230862213,7.3797721287544285 L-8.4422230862213,25.982938617261023 " />
			<path d="M-8.442223086221304,25.982938617261023 L9.491085684733036,27.25905783295368 " />
			<path d="M79.1950253023634,35.40125231540365 L79.1950253023634,16.798085826897047 " />
			<path d="M79.1950253023634,16.798085826897044 L61.26171653140909,15.521966611204387 " />
			<path d="M61.261716531409085,15.521966611204387 L61.261716531409085,34.12513309971098 " />
			<path d="M61.26171653140907,34.12513309971098 L79.1950253023634,35.40125231540364 " />
			<path d="M154.3733433869167,33.21170039795203 L154.3733433869167,14.60853390944543 " />
			<path d="M154.3733433869167,14.60853390944543 L136.44003461596236,13.332414693752774 " />
			<path d="M136.4400346159624,13.33241469375277 L136.4400346159624,31.935581182259366 " />
			<path d="M136.44003461596236,31.935581182259366 L154.37334338691673,33.21170039795202 " />
			<path d="M130.9184632312212,47.45327370996621 L130.9184632312212,28.85010722145962 " />
			<path d="M130.9184632312212,28.85010722145962 L112.98515446026687,27.573988005766964 " />
			<path d="M112.98515446026687,27.573988005766964 L112.98515446026687,46.17715449427356 " />
			<path d="M112.98515446026688,46.17715449427355 L130.9184632312212,47.45327370996621 " />
			<path d="M79.1950253023634,56.94176088104285 L79.1950253023634,38.33859439253625 " />
			<path d="M79.1950253023634,38.338594392536265 L61.26171653140909,37.062475176843606 " />
			<path d="M61.261716531409085,37.062475176843606 L61.261716531409085,55.6656416653502 " />
			<path d="M61.26171653140907,55.66564166535019 L79.1950253023634,56.94176088104285 " />
			<path d="M103.87692132133478,48.662185143314986 L103.87692132133478,30.05901865480838 " />
			<path d="M103.87692132133478,30.059018654808384 L85.94361255038046,28.782899439115727 " />
			<path d="M85.94361255038045,28.782899439115724 L85.94361255038045,47.38606592762232 " />
			<path d="M85.94361255038044,47.38606592762231 L103.87692132133479,48.66218514331497 " />
			<path d="M154.3733433869167,54.75220896359124 L154.3733433869167,36.14904247508465 " />
			<path d="M154.3733433869167,36.14904247508464 L136.44003461596236,34.87292325939199 " />
			<path d="M136.4400346159624,34.87292325939198 L136.4400346159624,53.476089747898584 " />
			<path d="M136.44003461596236,53.47608974789858 L154.37334338691673,54.75220896359124 " />
			<path d="M103.87692132133478,70.2026937089542 L103.87692132133478,51.5995272204476 " />
			<path d="M103.87692132133478,51.5995272204476 L85.94361255038046,50.32340800475494 " />
			<path d="M85.94361255038045,50.32340800475495 L85.94361255038045,68.92657449326154 " />
			<path d="M85.94361255038044,68.92657449326153 L103.87692132133479,70.20269370895419 " />
			<path d="M130.9184632312212,68.99378227560543 L130.9184632312212,50.39061578709883 " />
			<path d="M130.9184632312212,50.390615787098824 L112.98515446026687,49.11449657140617 " />
			<path d="M112.98515446026687,49.11449657140618 L112.98515446026687,67.71766305991278 " />
			<path d="M112.98515446026688,67.71766305991277 L130.9184632312212,68.99378227560543 " />
			<path d="M-168.34244706113378,69.18871101226087 L167.2935844626221,93.07228959648766 " />
			<path d="M167.29358446262205,93.07228959648766 L168.34244706113378,92.46301463260433 " />
			<path d="M-57.62786185939992,-39.20125381719579 L-57.62786185939992,-51.490603510905814 " />
			<path d="M-39.69455308844558,-68.81765078371974 L-39.69455308844558,-50.8983954421722 " />
			<path d="M-39.69455308844559,-68.81765078371974 L-56.57899926088819,-70.01913381633669 " />
			<path d="M-57.627861859399914,-57.120509158743346 L-74.51230803184252,-58.321992191360295 " />
			<path d="M92.44561680279685,-33.46814540780413 L74.51230803184254,-34.74426462349679 " />
			<path d="M74.51230803184252,-34.74426462349679 L74.51230803184252,-47.71752546416586 " />
			<path d="M74.51230803184252,-47.71752546416587 L56.578999260888196,-48.99364467985853 " />
			<path d="M56.57899926088819,-48.993644679858534 L56.57899926088819,-61.966905520527604 " />
			<path d="M56.578999260888196,-61.96690552052759 L39.69455308844557,-63.16838855314454 " />
			<path d="M56.578999260888196,-36.02038383918944 L39.69455308844557,-37.22186687180639 " />
			<path d="M74.51230803184252,-3.7048813374235436 L74.51230803184252,-16.141098134990195 " />
			<path d="M92.44561680279685,-33.46814540780414 L92.44561680279685,-15.548890066256583 " />
			<path d="M-136.4400346159624,12.517664256052853 L-136.4400346159624,-5.401591085494701 " />
			<path d="M-136.44003461596236,-5.401591085494702 L-153.32448078840497,-6.603074118111651 " />
			<path d="M-112.98515446026686,30.097296779642036 L-112.98515446026686,12.178041438094489 " />
			<path d="M-112.98515446026686,12.17804143809449 L-129.86960063270945,10.976558405477542 " />
			<path d="M-61.261716531409085,25.406468334548684 L-61.261716531409085,7.487212993001144 " />
			<path d="M-61.26171653140908,7.487212993001139 L-78.14616270385169,6.285729960384189 " />
			<path d="M-85.94361255038045,35.154715110842865 L-85.94361255038045,17.235459769295318 " />
			<path d="M-85.94361255038044,17.23545976929532 L-102.82805872282304,16.033976736678373 " />
			<path d="M8.4422230862213,27.18442164987797 L8.4422230862213,9.265166308330421 " />
			<path d="M8.442223086221304,9.265166308330418 L-8.442223086221304,8.063683275713469 " />
			<path d="M78.14616270385167,35.32661613232793 L78.14616270385167,17.407360790780377 " />
			<path d="M78.14616270385167,17.407360790780373 L61.26171653140909,16.205877758163425 " />
			<path d="M153.32448078840497,33.13706421487632 L153.32448078840497,15.21780887332876 " />
			<path d="M153.32448078840497,15.21780887332876 L136.4400346159624,14.016325840711815 " />
			<path d="M129.86960063270948,47.378637526890486 L129.86960063270948,29.45938218534295 " />
			<path d="M129.86960063270948,29.45938218534295 L112.98515446026687,28.257899152726 " />
			<path d="M78.14616270385167,56.86712469796714 L78.14616270385167,38.94786935641959 " />
			<path d="M78.14616270385167,38.94786935641959 L61.26171653140909,37.74638632380264 " />
			<path d="M102.82805872282304,48.58754896023926 L102.82805872282304,30.66829361869171 " />
			<path d="M102.82805872282304,30.668293618691713 L85.94361255038046,29.466810586074764 " />
			<path d="M153.32448078840497,54.67757278051553 L153.32448078840497,36.75831743896798 " />
			<path d="M153.32448078840497,36.75831743896798 L136.4400346159624,35.55683440635103 " />
			<path d="M102.82805872282304,70.12805752587848 L102.82805872282304,52.208802184330935 " />
			<path d="M102.82805872282304,52.208802184330935 L85.94361255038046,51.007319151713986 " />
			<path d="M129.86960063270948,68.91914609252972 L129.86960063270948,50.99989075098217 " />
			<path d="M129.86960063270948,50.99989075098216 L112.98515446026687,49.79840771836521 " />
			<path d="M-57.62786185939993,-51.49060351090583 L-56.578999260888196,-52.099878474789165 " />
			<path d="M-39.69455308844559,-68.81765078371976 L-38.645690489933855,-69.4269257476031 " />
			<path d="M-57.62786185939993,-57.12050915874336 L-56.578999260888196,-57.7297841226267 " />
			<path d="M92.44561680279685,-33.468145407804144 L93.49447940130858,-34.07742037168748 " />
			<path d="M74.51230803184252,-34.744264623496804 L75.56117063035425,-35.35353958738014 " />
			<path d="M74.51230803184252,-47.71752546416588 L75.56117063035425,-48.32680042804922 " />
			<path d="M56.57899926088819,-48.993644679858534 L57.62786185939992,-49.60291964374187 " />
			<path d="M74.51230803184252,-16.141098134990216 L75.56117063035425,-16.750373098873553 " />
			<path d="M56.57899926088819,-61.966905520527604 L57.62786185939992,-62.57618048441094 " />
			<path d="M56.57899926088819,-36.02038383918946 L57.62786185939992,-36.6296588030728 " />
			<path d="M-136.4400346159624,-5.401591085494715 L-135.39117201745066,-6.010866049378052 " />
			<path d="M-112.98515446026687,12.178041438094482 L-111.93629186175514,11.568766474211145 " />
			<path d="M-61.26171653140909,7.487212993001123 L-60.21285393289736,6.877938029117786 " />
			<path d="M-85.94361255038046,17.235459769295318 L-84.89474995186873,16.62618480541198 " />
			<path d="M8.442223086221304,9.265166308330407 L9.491085684733036,8.65589134444707 " />
			<path d="M78.14616270385169,17.40736079078036 L79.19502530236342,16.798085826897022 " />
			<path d="M153.32448078840497,15.21780887332875 L154.3733433869167,14.608533909445413 " />
			<path d="M129.86960063270945,29.459382185342946 L130.91846323122118,28.85010722145961 " />
			<path d="M78.14616270385169,38.947869356419574 L79.19502530236342,38.33859439253624 " />
			<path d="M102.82805872282304,30.668293618691706 L103.87692132133478,30.05901865480837 " />
			<path d="M153.32448078840497,36.758317438967964 L154.3733433869167,36.14904247508463 " />
			<path d="M102.82805872282304,52.20880218433092 L103.87692132133478,51.599527220447584 " />
			<path d="M129.86960063270945,50.99989075098216 L130.91846323122118,50.390615787098824 " />
			<path d="M57.62786185939992,-23.50953085854709 L57.62786185939992,-30.99975315523527 " />
			<path d="M75.56117063035425,-22.23341164285442 L57.62786185939993,-23.50953085854708 " />
			<path d="M75.56117063035425,-29.72363393954261 L75.56117063035425,-22.23341164285443 " />
			<path d="M57.62786185939992,-30.99975315523527 L75.56117063035427,-29.72363393954261 " />
			<path d="M56.57899926088819,-22.900255894663754 L56.57899926088819,-30.39047819135193 " />
			<path d="M56.57899926088819,-22.900255894663758 L57.62786185939992,-23.509530858547095 " />
			<path d="M56.57899926088819,-30.390478191351946 L57.62786185939992,-30.999753155235283 " />
			<path d="M74.51230803184252,-21.62413667897109 L56.578999260888196,-22.90025589466375 " />
			<path d="M74.51230803184252,-21.624136678971105 L75.56117063035425,-22.233411642854442 " />

       </g>
    </g>
    <g transform="translate(20,210.0)" stroke="rgb(0,0,255)">
        <line x1="30" y1="-30" x2="75" y2="-33" stroke-width="3" stroke="#000000" />
         <text x="80" y="-30" style="stroke:#000000">X </text>

        <line x1="30" y1="-30" x2="30" y2="-75" stroke-width="3" stroke="#000000" />
         <text x="25" y="-85" style="stroke:#000000">Y </text>

        <line x1="30" y1="-30" x2="58" y2="-15" stroke-width="3" stroke="#000000" />
         <text x="65" y="-5" style="stroke:#000000">Z </text>
        <!--
            <line x1="0" y1="0" x2="0.9669902866921241" y2="0" stroke-width="3" />
            <text x="0" y="20" style="stroke:#000000">1  mm </text>
        -->
    </g>
</svg>
