<?xml version="1.0" encoding="UTF-8" standalone="no"?>
<svg
   xmlns:svg="http://www.w3.org/2000/svg"
   xmlns="http://www.w3.org/2000/svg"
   width="800.0"
   height="240.0"

>
    <g transform="scale(0.9669902866921241, -0.9669902866921241)   translate(375.1697572755508,-113.75502061792938)" stroke-width="1.0341365510720852"  fill="none">
       <!-- hidden lines -->
       <g  stroke="rgb(160,160,160)" fill="none" stroke-dasharray="1.0341365510720852,1.0341365510720852" >
			<path d="M-168.34244706113378,-92.46301463260433 L167.2935844626221,-68.57943604837753 " />
			<path d="M167.29358446262205,-68.57943604837753 L168.34244706113378,-69.18871101226087 " />
			<path d="M167.29358446262205,-68.57943604837753 L167.29358446262205,93.07228959648766 " />
			<path d="M-42.054198979360635,-52.83017978260781 L-42.054198979360635,-53.51409092956685 " />
			<path d="M-55.26821596848487,-53.77047815206555 L-42.05419897936062,-52.8301797826078 " />
			<path d="M-54.21935336997315,-67.40343832894207 L-55.26821596848487,-67.47807451201777 " />
			<path d="M-55.26821596848488,-67.47807451201777 L-55.26821596848488,-53.77047815206554 " />
			<path d="M-59.98750775031497,-41.13303815763139 L-59.98750775031497,-41.81694930459044 " />
			<path d="M-73.20152473943921,-42.07333652708914 L-59.98750775031496,-41.13303815763139 " />
			<path d="M-72.15266214092748,-55.70629670396565 L-73.20152473943921,-55.78093288704136 " />
			<path d="M-73.20152473943921,-55.78093288704137 L-73.20152473943921,-42.07333652708914 " />
			<path d="M54.21935336997315,-45.97943451941564 L54.21935336997315,-46.66334566637468 " />
			<path d="M41.00533638084891,-46.919732888873384 L54.219353369973156,-45.97943451941563 " />
			<path d="M42.05419897936064,-60.5526930657499 L41.00533638084891,-60.6273292488256 " />
			<path d="M41.0053363808489,-60.6273292488256 L41.0053363808489,-46.91973288887338 " />
			<path d="M72.15266214092748,-31.730054463053914 L72.15266214092748,-32.41396561001295 " />
			<path d="M58.93864515180323,-32.670352832511654 L72.15266214092748,-31.73005446305391 " />
			<path d="M59.98750775031497,-46.30331300938818 L58.938645151803236,-46.37794919246389 " />
			<path d="M58.938645151803236,-46.37794919246388 L58.938645151803236,-32.670352832511654 " />
			<path d="M54.21935336997315,-20.032912838077493 L54.21935336997315,-20.71682398503654 " />
			<path d="M41.00533638084891,-20.973211207535243 L54.219353369973156,-20.032912838077497 " />
			<path d="M42.05419897936064,-34.60617138441176 L41.00533638084891,-34.68080756748746 " />
			<path d="M41.0053363808489,-34.68080756748746 L41.0053363808489,-20.973211207535236 " />
			<path d="M72.15266214092748,-5.636665677859135 L72.15266214092748,-6.32057682481819 " />
			<path d="M58.93864515180323,-6.5769640473168876 L72.15266214092748,-5.63666567785914 " />
			<path d="M59.98750775031497,-20.209924224193404 L58.938645151803236,-20.28456040726911 " />
			<path d="M58.938645151803236,-20.284560407269105 L58.938645151803236,-6.576964047316878 " />
			<path d="M90.08597091188182,-17.480674406692174 L90.08597091188182,-18.16458555365122 " />
			<path d="M76.87195392275757,-18.42097277614993 L90.08597091188182,-17.48067440669218 " />
			<path d="M77.92081652126929,-32.05393295302644 L76.87195392275757,-32.12856913610215 " />
			<path d="M76.87195392275757,-32.12856913610215 L76.87195392275757,-18.420972776149924 " />
			<path d="M-138.79968050687742,10.585879915617255 L-138.79968050687742,9.901968768658215 " />
			<path d="M-152.01369749600164,9.645581546159503 L-138.79968050687742,10.585879915617252 " />
			<path d="M-150.96483489748994,-3.9873786307170134 L-152.01369749600167,-4.062014813792722 " />
			<path d="M-152.01369749600167,-4.062014813792722 L-152.01369749600167,9.645581546159505 " />
			<path d="M-115.34480035118189,28.165512439206445 L-115.34480035118189,27.481601292247397 " />
			<path d="M-128.55881734030612,27.225214069748695 L-115.34480035118189,28.16551243920644 " />
			<path d="M-127.50995474179442,13.592253892872181 L-128.55881734030615,13.517617709796472 " />
			<path d="M-128.55881734030615,13.517617709796472 L-128.55881734030615,27.2252140697487 " />
			<path d="M-63.621362422324125,23.4746839941131 L-63.621362422324125,22.790772847154045 " />
			<path d="M-76.83537941144837,22.534385624655343 L-63.621362422324125,23.47468399411309 " />
			<path d="M-75.78651681293664,8.901425447778827 L-76.83537941144837,8.826789264703118 " />
			<path d="M-76.83537941144837,8.826789264703113 L-76.83537941144837,22.534385624655346 " />
			<path d="M-88.30325844129548,33.22293077040729 L-88.30325844129548,32.53901962344824 " />
			<path d="M-101.51727543041974,32.282632400949524 L-88.3032584412955,33.222930770407274 " />
			<path d="M-100.468412831908,18.649672224073008 L-101.51727543041972,18.5750360409973 " />
			<path d="M-101.51727543041973,18.5750360409973 L-101.51727543041973,32.282632400949524 " />
			<path d="M6.082577195306258,25.252637309442378 L6.082577195306258,24.56872616248333 " />
			<path d="M-7.131439793817975,24.312338939984624 L6.082577195306271,25.25263730944237 " />
			<path d="M-7.131439793817987,10.604742580032397 L-7.131439793817987,24.312338939984624 " />
			<path d="M-6.082577195306257,10.679378763108106 L-7.131439793817975,10.604742580032399 " />
			<path d="M75.78651681293663,33.39483179189233 L75.78651681293663,32.710920644933296 " />
			<path d="M62.57249982381239,32.45453342243458 L75.78651681293664,33.39483179189233 " />
			<path d="M63.621362422324125,18.821573245558064 L62.57249982381241,18.746937062482356 " />
			<path d="M62.57249982381239,18.74693706248235 L62.57249982381239,32.45453342243458 " />
			<path d="M150.96483489748994,31.205279874440716 L150.96483489748994,30.521368727481676 " />
			<path d="M137.7508179083657,30.264981504982966 L150.96483489748994,31.205279874440713 " />
			<path d="M138.79968050687742,16.63202132810645 L137.75081790836572,16.557385145030743 " />
			<path d="M137.7508179083657,16.55738514503074 L137.7508179083657,30.264981504982966 " />
			<path d="M127.50995474179444,45.4468531864549 L127.50995474179444,44.762942039495854 " />
			<path d="M114.29593775267018,44.506554816997166 L127.50995474179443,45.44685318645491 " />
			<path d="M115.3448003511819,30.873594640120636 L114.29593775267017,30.798958457044932 " />
			<path d="M114.29593775267017,30.798958457044936 L114.29593775267017,44.506554816997166 " />
			<path d="M75.78651681293663,54.935340357531544 L75.78651681293663,54.25142921057251 " />
			<path d="M62.57249982381239,53.99504198807381 L75.78651681293664,54.93534035753156 " />
			<path d="M63.621362422324125,40.362081811197285 L62.57249982381241,40.287445628121574 " />
			<path d="M62.57249982381239,40.287445628121574 L62.57249982381239,53.99504198807381 " />
			<path d="M100.468412831908,46.655764619803676 L100.468412831908,45.971853472844614 " />
			<path d="M87.25439584278377,45.715466250345926 L100.46841283190801,46.655764619803676 " />
			<path d="M88.30325844129547,32.0825060734694 L87.25439584278377,32.00786989039369 " />
			<path d="M87.25439584278375,32.0078698903937 L87.25439584278375,45.715466250345926 " />
			<path d="M150.96483489748994,52.74578844007993 L150.96483489748994,52.061877293120894 " />
			<path d="M137.7508179083657,51.805490070622184 L150.96483489748994,52.745788440079934 " />
			<path d="M138.79968050687742,38.17252989374566 L137.75081790836572,38.09789371066996 " />
			<path d="M137.7508179083657,38.09789371066996 L137.7508179083657,51.805490070622184 " />
			<path d="M100.468412831908,68.19627318544289 L100.468412831908,67.51236203848384 " />
			<path d="M87.25439584278377,67.25597481598514 L100.46841283190801,68.19627318544289 " />
			<path d="M88.30325844129547,53.623014639108625 L87.25439584278377,53.54837845603292 " />
			<path d="M87.25439584278375,53.54837845603292 L87.25439584278375,67.25597481598514 " />
			<path d="M127.50995474179444,66.98736175209412 L127.50995474179444,66.30345060513507 " />
			<path d="M114.29593775267018,66.04706338263638 L127.50995474179443,66.98736175209413 " />
			<path d="M115.3448003511819,52.41410320575986 L114.29593775267017,52.33946702268415 " />
			<path d="M114.29593775267017,52.33946702268415 L114.29593775267017,66.04706338263638 " />
			<path d="M-42.05419897936065,-52.830179782607814 L-41.00533638084892,-53.43945474649115 " />
			<path d="M-55.26821596848487,-53.77047815206556 L-54.219353369973135,-54.379753115948894 " />
			<path d="M-55.26821596848487,-67.47807451201778 L-54.219353369973135,-68.08734947590112 " />
			<path d="M-59.98750775031496,-41.133038157631404 L-58.93864515180323,-41.74231312151474 " />
			<path d="M-73.20152473943921,-42.07333652708915 L-72.15266214092748,-42.682611490972484 " />
			<path d="M-73.20152473943921,-55.780932887041374 L-72.15266214092748,-56.39020785092471 " />
			<path d="M54.21935336997315,-45.979434519415655 L55.26821596848488,-46.58870948329899 " />
			<path d="M41.0053363808489,-46.9197328888734 L42.054198979360635,-47.529007852756735 " />
			<path d="M41.0053363808489,-60.627329248825625 L42.054198979360635,-61.23660421270896 " />
			<path d="M72.15266214092748,-31.730054463053925 L73.20152473943921,-32.33932942693726 " />
			<path d="M58.938645151803236,-32.67035283251167 L59.98750775031497,-33.279627796395005 " />
			<path d="M58.938645151803236,-46.3779491924639 L59.98750775031497,-46.98722415634724 " />
			<path d="M54.21935336997315,-20.032912838077507 L55.26821596848488,-20.642187801960844 " />
			<path d="M41.0053363808489,-20.973211207535257 L42.054198979360635,-21.582486171418594 " />
			<path d="M41.0053363808489,-34.68080756748748 L42.054198979360635,-35.290082531370814 " />
			<path d="M72.15266214092748,-5.636665677859149 L73.20152473943921,-6.245940641742486 " />
			<path d="M58.938645151803236,-6.576964047316892 L59.98750775031497,-7.186239011200229 " />
			<path d="M58.938645151803236,-20.284560407269126 L59.98750775031497,-20.893835371152463 " />
			<path d="M90.08597091188182,-17.480674406692195 L91.13483351039355,-18.089949370575532 " />
			<path d="M76.87195392275757,-18.420972776149938 L77.9208165212693,-19.030247740033275 " />
			<path d="M76.87195392275757,-32.128569136102165 L77.9208165212693,-32.7378440999855 " />
			<path d="M-138.79968050687742,10.585879915617241 L-137.7508179083657,9.976604951733904 " />
			<path d="M-152.01369749600167,9.645581546159491 L-150.96483489748994,9.036306582276154 " />
			<path d="M-152.01369749600167,-4.062014813792729 L-150.96483489748994,-4.671289777676066 " />
			<path d="M-115.3448003511819,28.165512439206424 L-114.29593775267017,27.556237475323087 " />
			<path d="M-128.55881734030615,27.225214069748688 L-127.50995474179442,26.61593910586535 " />
			<path d="M-128.55881734030615,13.517617709796468 L-127.50995474179442,12.908342745913131 " />
			<path d="M-63.621362422324125,23.47468399411308 L-62.57249982381239,22.865409030229742 " />
			<path d="M-76.83537941144837,22.53438562465533 L-75.78651681293664,21.925110660771992 " />
			<path d="M-76.83537941144837,8.826789264703109 L-75.78651681293664,8.217514300819772 " />
			<path d="M-88.3032584412955,33.22293077040726 L-87.25439584278377,32.61365580652392 " />
			<path d="M-101.51727543041972,32.282632400949524 L-100.46841283190798,31.673357437066187 " />
			<path d="M-101.51727543041972,18.57503604099729 L-100.46841283190798,17.965761077113953 " />
			<path d="M6.082577195306257,25.252637309442363 L7.131439793817989,24.643362345559026 " />
			<path d="M-7.131439793817989,24.312338939984613 L-6.082577195306257,23.703063976101276 " />
			<path d="M-7.131439793817989,10.604742580032394 L-6.082577195306257,9.995467616149057 " />
			<path d="M75.78651681293664,33.394831791892315 L76.83537941144837,32.78555682800898 " />
			<path d="M62.57249982381239,32.454533422434565 L63.621362422324125,31.84525845855123 " />
			<path d="M62.57249982381239,18.746937062482345 L63.621362422324125,18.13766209859901 " />
			<path d="M150.96483489748994,31.205279874440706 L152.01369749600167,30.59600491055737 " />
			<path d="M137.7508179083657,30.264981504982956 L138.79968050687742,29.65570654109962 " />
			<path d="M137.7508179083657,16.557385145030736 L138.79968050687742,15.948110181147399 " />
			<path d="M127.50995474179442,45.44685318645489 L128.55881734030615,44.83757822257155 " />
			<path d="M114.29593775267016,44.50655481699715 L115.34480035118189,43.897279853113815 " />
			<path d="M114.29593775267016,30.798958457044932 L115.34480035118189,30.189683493161596 " />
			<path d="M75.78651681293664,54.935340357531544 L76.83537941144837,54.32606539364821 " />
			<path d="M62.57249982381239,53.99504198807378 L63.621362422324125,53.38576702419044 " />
			<path d="M62.57249982381239,40.28744562812156 L63.621362422324125,39.67817066423822 " />
			<path d="M100.468412831908,46.65576461980365 L101.51727543041973,46.04648965592031 " />
			<path d="M87.25439584278375,45.71546625034591 L88.30325844129548,45.106191286462575 " />
			<path d="M87.25439584278375,32.00786989039369 L88.30325844129548,31.398594926510356 " />
			<path d="M150.96483489748994,52.74578844007992 L152.01369749600167,52.13651347619658 " />
			<path d="M137.7508179083657,51.80549007062217 L138.79968050687742,51.19621510673883 " />
			<path d="M137.7508179083657,38.09789371066995 L138.79968050687742,37.488618746786614 " />
			<path d="M100.468412831908,68.19627318544286 L101.51727543041973,67.58699822155953 " />
			<path d="M87.25439584278375,67.25597481598513 L88.30325844129548,66.64669985210179 " />
			<path d="M87.25439584278375,53.54837845603291 L88.30325844129548,52.93910349214957 " />
			<path d="M127.50995474179442,66.9873617520941 L128.55881734030615,66.37808678821077 " />
			<path d="M114.29593775267016,66.04706338263637 L115.34480035118189,65.43778841875303 " />
			<path d="M114.29593775267016,52.33946702268413 L115.34480035118189,51.730192058800796 " />

       </g>

       <!-- solid lines -->
       <g  stroke="rgb(0,0,0)" fill="none">
			<path d="M-168.34244706113378,-92.46301463260433 L-167.29358446262205,-93.07228959648766 " />
			<path d="M-167.29358446262205,-93.07228959648766 L-167.29358446262205,68.57943604837753 " />
			<path d="M-168.34244706113378,69.18871101226087 L-167.29358446262205,68.57943604837753 " />
			<path d="M-168.34244706113378,-92.46301463260433 L-168.34244706113378,69.18871101226087 " />
			<path d="M-167.29358446262205,-93.07228959648766 L168.34244706113384,-69.18871101226087 " />
			<path d="M-167.29358446262205,68.57943604837753 L168.34244706113384,92.46301463260433 " />
			<path d="M168.34244706113378,-69.18871101226087 L168.34244706113378,92.46301463260433 " />
			<path d="M-41.0053363808489,-53.439454746491144 L-41.0053363808489,-67.14705110644337 " />
			<path d="M-54.219353369973135,-54.37975311594889 L-41.00533638084889,-53.43945474649114 " />
			<path d="M-41.0053363808489,-67.14705110644337 L-54.219353369973135,-68.0873494759011 " />
			<path d="M-54.21935336997315,-68.0873494759011 L-54.21935336997315,-54.37975311594888 " />
			<path d="M-58.938645151803236,-41.74231312151473 L-58.938645151803236,-55.44990948146696 " />
			<path d="M-72.15266214092748,-42.68261149097248 L-58.93864515180323,-41.74231312151473 " />
			<path d="M-58.938645151803236,-55.449909481466946 L-72.15266214092748,-56.390207850924696 " />
			<path d="M-72.15266214092748,-56.3902078509247 L-72.15266214092748,-42.68261149097248 " />
			<path d="M55.26821596848488,-46.58870948329898 L55.26821596848488,-60.296305843251204 " />
			<path d="M42.05419897936064,-47.52900785275672 L55.26821596848489,-46.58870948329897 " />
			<path d="M55.26821596848489,-60.2963058432512 L42.05419897936064,-61.23660421270894 " />
			<path d="M42.054198979360635,-61.23660421270894 L42.054198979360635,-47.52900785275671 " />
			<path d="M73.20152473943921,-32.339329426937255 L73.20152473943921,-46.04692578688948 " />
			<path d="M59.98750775031496,-33.27962779639499 L73.20152473943921,-32.33932942693725 " />
			<path d="M73.20152473943921,-46.046925786889474 L59.98750775031497,-46.987224156347224 " />
			<path d="M59.98750775031497,-46.98722415634722 L59.98750775031497,-33.27962779639499 " />
			<path d="M55.26821596848488,-20.64218780196083 L55.26821596848488,-34.349784161913064 " />
			<path d="M42.05419897936064,-21.582486171418573 L55.26821596848489,-20.642187801960826 " />
			<path d="M55.26821596848489,-34.34978416191306 L42.05419897936064,-35.2900825313708 " />
			<path d="M42.054198979360635,-35.2900825313708 L42.054198979360635,-21.582486171418573 " />
			<path d="M73.20152473943921,-6.245940641742472 L73.20152473943921,-19.953537001694702 " />
			<path d="M59.98750775031496,-7.186239011200221 L73.20152473943921,-6.245940641742473 " />
			<path d="M73.20152473943921,-19.95353700169469 L59.98750775031497,-20.89383537115244 " />
			<path d="M59.98750775031497,-20.89383537115244 L59.98750775031497,-7.186239011200215 " />
			<path d="M91.13483351039355,-18.08994937057551 L91.13483351039355,-31.79754573052774 " />
			<path d="M77.9208165212693,-19.03024774003326 L91.13483351039355,-18.08994937057551 " />
			<path d="M91.13483351039356,-31.797545730527737 L77.9208165212693,-32.73784409998549 " />
			<path d="M77.9208165212693,-32.73784409998549 L77.9208165212693,-19.03024774003326 " />
			<path d="M-137.7508179083657,9.976604951733918 L-137.7508179083657,-3.7309914082183084 " />
			<path d="M-150.9648348974899,9.03630658227617 L-137.7508179083657,9.976604951733918 " />
			<path d="M-137.7508179083657,-3.7309914082183058 L-150.96483489748994,-4.671289777676053 " />
			<path d="M-150.96483489748994,-4.6712897776760585 L-150.96483489748994,9.036306582276168 " />
			<path d="M-114.29593775267016,27.55623747532311 L-114.29593775267016,13.848641115370881 " />
			<path d="M-127.5099547417944,26.615939105865365 L-114.29593775267016,27.556237475323112 " />
			<path d="M-114.29593775267017,13.848641115370887 L-127.50995474179442,12.908342745913139 " />
			<path d="M-127.50995474179442,12.908342745913142 L-127.50995474179442,26.61593910586537 " />
			<path d="M-62.57249982381239,22.865409030229763 L-62.57249982381239,9.157812670277536 " />
			<path d="M-75.78651681293664,21.925110660772013 L-62.57249982381239,22.86540903022976 " />
			<path d="M-62.57249982381239,9.157812670277535 L-75.78651681293664,8.217514300819786 " />
			<path d="M-75.78651681293664,8.21751430081978 L-75.78651681293664,21.925110660772013 " />
			<path d="M-87.25439584278375,32.61365580652395 L-87.25439584278375,18.90605944657171 " />
			<path d="M-100.46841283190801,31.673357437066198 L-87.25439584278377,32.613655806523944 " />
			<path d="M-87.25439584278374,18.906059446571717 L-100.46841283190798,17.96576107711397 " />
			<path d="M-100.468412831908,17.96576107711397 L-100.468412831908,31.673357437066198 " />
			<path d="M7.131439793817987,24.64336234555904 L7.131439793817987,10.935765985606814 " />
			<path d="M-6.082577195306243,23.703063976101294 L7.131439793818004,24.64336234555904 " />
			<path d="M-6.082577195306258,9.995467616149067 L-6.082577195306258,23.703063976101294 " />
			<path d="M7.131439793818004,10.935765985606816 L-6.082577195306243,9.995467616149067 " />
			<path d="M76.83537941144836,32.78555682800901 L76.83537941144836,19.077960468056776 " />
			<path d="M63.621362422324125,31.84525845855125 L76.83537941144837,32.78555682800899 " />
			<path d="M76.83537941144834,19.077960468056766 L63.62136242232414,18.137662098599023 " />
			<path d="M63.621362422324125,18.13766209859902 L63.621362422324125,31.845258458551253 " />
			<path d="M152.01369749600167,30.596004910557387 L152.01369749600167,16.88840855060516 " />
			<path d="M138.79968050687742,29.655706541099637 L152.01369749600167,30.596004910557383 " />
			<path d="M152.01369749600167,16.888408550605156 L138.79968050687745,15.94811018114741 " />
			<path d="M138.79968050687742,15.94811018114741 L138.79968050687742,29.655706541099637 " />
			<path d="M128.55881734030618,44.83757822257158 L128.55881734030618,31.12998186261935 " />
			<path d="M115.34480035118192,43.89727985311383 L128.55881734030615,44.83757822257157 " />
			<path d="M128.55881734030615,31.12998186261935 L115.3448003511819,30.189683493161603 " />
			<path d="M115.3448003511819,30.189683493161603 L115.3448003511819,43.89727985311383 " />
			<path d="M76.83537941144836,54.32606539364822 L76.83537941144836,40.61846903369599 " />
			<path d="M63.621362422324125,53.38576702419047 L76.83537941144837,54.32606539364822 " />
			<path d="M76.83537941144834,40.61846903369599 L63.62136242232414,39.678170664238245 " />
			<path d="M63.621362422324125,39.67817066423824 L63.621362422324125,53.38576702419047 " />
			<path d="M101.51727543041973,46.046489655920354 L101.51727543041973,32.338893295968106 " />
			<path d="M88.3032584412955,45.10619128646259 L101.51727543041974,46.04648965592034 " />
			<path d="M101.51727543041974,32.33889329596811 L88.3032584412955,31.398594926510366 " />
			<path d="M88.30325844129548,31.398594926510363 L88.30325844129548,45.10619128646259 " />
			<path d="M152.01369749600167,52.1365134761966 L152.01369749600167,38.42891711624438 " />
			<path d="M138.79968050687742,51.19621510673885 L152.01369749600167,52.1365134761966 " />
			<path d="M152.01369749600167,38.42891711624438 L138.79968050687745,37.48861874678663 " />
			<path d="M138.79968050687742,37.48861874678663 L138.79968050687742,51.19621510673885 " />
			<path d="M101.51727543041973,67.58699822155957 L101.51727543041973,53.879401861607334 " />
			<path d="M88.3032584412955,66.6466998521018 L101.51727543041974,67.58699822155955 " />
			<path d="M101.51727543041974,53.87940186160733 L88.3032584412955,52.939103492149584 " />
			<path d="M88.30325844129548,52.939103492149584 L88.30325844129548,66.6466998521018 " />
			<path d="M128.55881734030618,66.3780867882108 L128.55881734030618,52.67049042825856 " />
			<path d="M115.34480035118192,65.43778841875304 L128.55881734030615,66.3780867882108 " />
			<path d="M128.55881734030615,52.67049042825856 L115.3448003511819,51.73019205880081 " />
			<path d="M115.3448003511819,51.73019205880082 L115.3448003511819,65.43778841875304 " />
			<path d="M-168.34244706113378,69.18871101226087 L167.2935844626221,93.07228959648766 " />
			<path d="M167.29358446262205,93.07228959648766 L168.34244706113378,92.46301463260433 " />
			<path d="M-42.054198979360635,-53.51409092956685 L-42.054198979360635,-66.53777614256003 " />
			<path d="M-42.054198979360635,-66.53777614256003 L-54.21935336997315,-67.40343832894207 " />
			<path d="M-59.98750775031497,-41.81694930459044 L-59.98750775031497,-54.840634517583624 " />
			<path d="M-59.98750775031497,-54.84063451758361 L-72.15266214092748,-55.70629670396565 " />
			<path d="M54.21935336997315,-46.66334566637468 L54.21935336997315,-59.68703087936787 " />
			<path d="M54.219353369973156,-59.68703087936786 L42.05419897936064,-60.5526930657499 " />
			<path d="M72.15266214092748,-32.41396561001295 L72.15266214092748,-45.437650823006145 " />
			<path d="M72.15266214092748,-45.43765082300614 L59.98750775031497,-46.30331300938818 " />
			<path d="M54.21935336997315,-20.71682398503654 L54.21935336997315,-33.74050919802973 " />
			<path d="M54.219353369973156,-33.74050919802972 L42.05419897936064,-34.60617138441176 " />
			<path d="M72.15266214092748,-6.32057682481819 L72.15266214092748,-19.344262037811365 " />
			<path d="M72.15266214092748,-19.34426203781136 L59.98750775031497,-20.209924224193404 " />
			<path d="M90.08597091188182,-18.16458555365122 L90.08597091188182,-31.188270766644404 " />
			<path d="M90.08597091188183,-31.1882707666444 L77.92081652126929,-32.05393295302644 " />
			<path d="M-138.79968050687742,9.901968768658215 L-138.79968050687742,-3.1217164443349716 " />
			<path d="M-138.79968050687742,-3.1217164443349743 L-150.96483489748994,-3.9873786307170134 " />
			<path d="M-115.34480035118189,27.481601292247397 L-115.34480035118189,14.457916079254218 " />
			<path d="M-115.3448003511819,14.45791607925422 L-127.50995474179442,13.592253892872181 " />
			<path d="M-63.621362422324125,22.790772847154045 L-63.621362422324125,9.767087634160873 " />
			<path d="M-63.621362422324125,9.767087634160866 L-75.78651681293664,8.901425447778827 " />
			<path d="M-88.30325844129548,32.53901962344824 L-88.30325844129548,19.515334410455047 " />
			<path d="M-88.30325844129547,19.51533441045505 L-100.468412831908,18.649672224073008 " />
			<path d="M6.082577195306258,24.56872616248333 L6.082577195306258,11.54504094949015 " />
			<path d="M6.082577195306271,11.545040949490147 L-6.082577195306257,10.679378763108106 " />
			<path d="M75.78651681293663,32.710920644933296 L75.78651681293663,19.687235431940106 " />
			<path d="M75.78651681293661,19.687235431940103 L63.621362422324125,18.821573245558064 " />
			<path d="M150.96483489748994,30.521368727481676 L150.96483489748994,17.49768351448849 " />
			<path d="M150.96483489748996,17.49768351448849 L138.79968050687742,16.63202132810645 " />
			<path d="M127.50995474179444,44.762942039495854 L127.50995474179444,31.73925682650268 " />
			<path d="M127.50995474179442,31.73925682650268 L115.3448003511819,30.873594640120636 " />
			<path d="M75.78651681293663,54.25142921057251 L75.78651681293663,41.22774399757931 " />
			<path d="M75.78651681293661,41.227743997579324 L63.621362422324125,40.362081811197285 " />
			<path d="M100.468412831908,45.971853472844614 L100.468412831908,32.94816825985144 " />
			<path d="M100.46841283190801,32.94816825985144 L88.30325844129547,32.0825060734694 " />
			<path d="M150.96483489748994,52.061877293120894 L150.96483489748994,39.03819208012771 " />
			<path d="M150.96483489748996,39.0381920801277 L138.79968050687742,38.17252989374566 " />
			<path d="M100.468412831908,67.51236203848384 L100.468412831908,54.488676825490664 " />
			<path d="M100.46841283190801,54.488676825490664 L88.30325844129547,53.623014639108625 " />
			<path d="M127.50995474179444,66.30345060513507 L127.50995474179444,53.2797653921419 " />
			<path d="M127.50995474179442,53.2797653921419 L115.3448003511819,52.41410320575986 " />
			<path d="M-42.05419897936065,-66.53777614256003 L-41.00533638084892,-67.14705110644337 " />
			<path d="M-59.98750775031496,-54.840634517583624 L-58.93864515180323,-55.44990948146696 " />
			<path d="M54.21935336997315,-59.68703087936788 L55.26821596848488,-60.29630584325122 " />
			<path d="M72.15266214092748,-45.43765082300615 L73.20152473943921,-46.04692578688949 " />
			<path d="M54.21935336997315,-33.740509198029734 L55.26821596848488,-34.34978416191307 " />
			<path d="M72.15266214092748,-19.344262037811376 L73.20152473943921,-19.953537001694713 " />
			<path d="M90.08597091188182,-31.188270766644415 L91.13483351039355,-31.79754573052775 " />
			<path d="M-138.79968050687742,-3.1217164443349787 L-137.7508179083657,-3.7309914082183155 " />
			<path d="M-115.3448003511819,14.457916079254204 L-114.29593775267017,13.848641115370867 " />
			<path d="M-63.621362422324125,9.767087634160859 L-62.57249982381239,9.157812670277522 " />
			<path d="M-88.3032584412955,19.51533441045504 L-87.25439584278377,18.906059446571703 " />
			<path d="M6.082577195306257,11.54504094949013 L7.131439793817989,10.935765985606793 " />
			<path d="M75.78651681293664,19.687235431940096 L76.83537941144837,19.07796046805676 " />
			<path d="M150.96483489748994,17.49768351448847 L152.01369749600167,16.888408550605135 " />
			<path d="M127.50995474179442,31.739256826502668 L128.55881734030615,31.12998186261933 " />
			<path d="M75.78651681293664,41.22774399757931 L76.83537941144837,40.61846903369597 " />
			<path d="M100.468412831908,32.94816825985143 L101.51727543041973,32.33889329596809 " />
			<path d="M150.96483489748994,39.038192080127686 L152.01369749600167,38.42891711624435 " />
			<path d="M100.468412831908,54.48867682549064 L101.51727543041973,53.879401861607306 " />
			<path d="M127.50995474179442,53.27976539214188 L128.55881734030615,52.670490428258546 " />

       </g>
    </g>
    <g transform="translate(20,210.0)" stroke="rgb(0,0,255)">
        <line x1="30" y1="-30" x2="75" y2="-33" stroke-width="3" stroke="#000000" />
         <text x="80" y="-30" style="stroke:#000000">X </text>

        <line x1="30" y1="-30" x2="30" y2="-75" stroke-width="3" stroke="#000000" />
         <text x="25" y="-85" style="stroke:#000000">Y </text>

        <line x1="30" y1="-30" x2="58" y2="-15" stroke-width="3" stroke="#000000" />
         <text x="65" y="-5" style="stroke:#000000">Z </text>
        <!--
            <line x1="0" y1="0" x2="0.9669902866921241" y2="0" stroke-width="3" />
            <text x="0" y="20" style="stroke:#000000">1  mm </text>
        -->
    </g>
</svg>
